inDegrees=no
num_controls=7
num_derivatives=13
num_iterations=165
num_multipliers=7
num_parameters=0
num_slacks=7
num_states=26
objective=5.247595
objective_accelerations=0.463806
objective_balance=0.008261
objective_effort=0.390827
objective_height=4.361239
objective_ligament=0.023461
solver_duration=1375.473986
status=Solve_Succeeded
success=true
DataType=double
version=3
OpenSimVersion=4.4-2022-07-23-0e9fedc
endheader
time	/jointset/ground_pelvis/pelvis_tilt/value	/jointset/ground_pelvis/pelvis_tx/value	/jointset/ground_pelvis/pelvis_ty/value	/jointset/hip_r/hip_flexion_r/value	/jointset/hip_r/hip_adduction_r/value	/jointset/hip_r/hip_rotation_r/value	/jointset/back/lumbar_extension/value	/jointset/patellofemoral_r/patellar_flexion_r/value	/jointset/knee_r/knee_flexion_r/value	/jointset/knee_r/knee_adduction_r/value	/jointset/knee_r/knee_rotation_r/value	/jointset/ankle_r/ankle_angle_r/value	/jointset/subtalar_r/subtalar_angle_r/value	/jointset/ground_pelvis/pelvis_tilt/speed	/jointset/ground_pelvis/pelvis_tx/speed	/jointset/ground_pelvis/pelvis_ty/speed	/jointset/hip_r/hip_flexion_r/speed	/jointset/hip_r/hip_adduction_r/speed	/jointset/hip_r/hip_rotation_r/speed	/jointset/back/lumbar_extension/speed	/jointset/patellofemoral_r/patellar_flexion_r/speed	/jointset/knee_r/knee_flexion_r/speed	/jointset/knee_r/knee_adduction_r/speed	/jointset/knee_r/knee_rotation_r/speed	/jointset/ankle_r/ankle_angle_r/speed	/jointset/subtalar_r/subtalar_angle_r/speed	/forceset/tau_hip_flexion_r	/forceset/tau_hip_adduction_r	/forceset/tau_hip_rotation_r	/forceset/tau_knee_flexion_r	/forceset/tau_ankle_angle_r	/forceset/tau_subtalar_angle_r	/forceset/tau_lumbar_extension	lambda_cid13_p0	lambda_cid14_p0	lambda_cid14_p1	lambda_cid14_p2	lambda_cid14_p3	lambda_cid14_p4	lambda_cid14_p5	/jointset/ground_pelvis/pelvis_tilt/accel	/jointset/ground_pelvis/pelvis_tx/accel	/jointset/ground_pelvis/pelvis_ty/accel	/jointset/hip_r/hip_flexion_r/accel	/jointset/hip_r/hip_adduction_r/accel	/jointset/hip_r/hip_rotation_r/accel	/jointset/back/lumbar_extension/accel	/jointset/patellofemoral_r/patellar_flexion_r/accel	/jointset/knee_r/knee_flexion_r/accel	/jointset/knee_r/knee_adduction_r/accel	/jointset/knee_r/knee_rotation_r/accel	/jointset/ankle_r/ankle_angle_r/accel	/jointset/subtalar_r/subtalar_angle_r/accel	gamma_cid13_p0	gamma_cid14_p0	gamma_cid14_p1	gamma_cid14_p2	gamma_cid14_p3	gamma_cid14_p4	gamma_cid14_p5
0.5	-0.09247235656343247	0.04146955620051986	0.831316046124099	0.7705789949060907	-0.2163149236655584	-0.150242127978192	-0.6343276075338529	0.872540185425573	0.8725401854255631	-0.05619011339229306	0.1745325482316706	0.2871016305208439	0.1461758374098509	-0.2486400607930992	-0.1782598606443068	-0.4033658034269944	1.543248497158587	-0.01726154206264108	0.1413859869595824	-0.742111928806463	1.717845957646849	1.717845957646895	-0.4302062174643615	2.869087848362954e-05	0.5263416630570723	0.1865963907198096	-0.1678002949063357	0.002492299415567958	0.01636664346259592	-0.2817767955168717	-0.004913688964084379	0.002846628389076171	0.2214829968740072	-12.9180319617837	-44.07657906330017	-4.507907916703674	-1.113355659569538	-2.514630230395034	-644.5042966536716	67.13382224525181	0.1932185678989492	0.4736196467458022	-0.3431482804745513	-1.086619347806119	-0.2116266829623752	-0.6048097096670317	1.583968593102522	-1.191937958681303	-1.191937958681317	0.3654536534993111	0.002107270179797841	-0.435443835754606	-0.3038402761133547	-6.400531767600157e-08	-9.225873024157391e-08	5.086787362439425e-08	-1.116026116650639e-06	4.334989914269493e-08	-1.542345870305804e-07	2.310057141427489e-07
0.51	-0.0949486132080892	0.03971078898469154	0.8272661115287041	0.7859549255179811	-0.2164986342744662	-0.1488568943087731	-0.6416686592488254	0.8896568390971109	0.8896568390970913	-0.06047128425123872	0.1745328027068783	0.2923422830868656	0.148025269266923	-0.2465653787055997	-0.1734796548157068	-0.4065321195476839	1.531727314805237	-0.01947388730478992	0.1356885317311331	-0.7260077370009772	1.70525526924846	1.705255269248492	-0.4259726749749947	1.659369789467918e-05	0.5217113833375647	0.1832541831320438	-0.1733293453157383	0.003475558012543978	0.01664293708157289	-0.2856914953185491	-0.006596040466742218	0.00343513303234472	0.2267739204955059	-12.03560881544866	-44.84549156964808	-4.519768647165973	-0.9597553314271899	-2.297144477321502	-648.4348959605878	67.43927524381141	0.2214656613863089	0.4823200862146249	-0.290054923552998	-1.216428406857991	-0.2252113521868595	-0.5481972778467784	1.637246052378917	-1.327047349412986	-1.327047349415092	0.460579780748303	-0.003932356096182235	-0.4884427190726123	-0.3549167441851964	-6.305768380535937e-08	-7.283580539296757e-08	1.882259549513263e-07	-9.332909319661028e-07	1.671089202946928e-08	-1.326590217468847e-07	2.868899718385714e-07
0.52	-0.09740274850543057	0.03800024363420868	0.823187177442965	0.8012093321607846	-0.2167043029172649	-0.1475278319613195	-0.6488459487301221	0.906640703270866	0.9066407032708361	-0.06470846463847235	0.1745327233818093	0.2975343083198871	0.1498401778993022	-0.2442157913296621	-0.1686154875752133	-0.4091657014958588	1.518943703341543	-0.02165314884077083	0.1301517225661672	-0.709359482071197	1.69128805809026	1.691288058090278	-0.4214081231219101	-3.806923941104273e-05	0.516616196457105	0.1796917457811969	-0.1788583957251438	0.004458816609528254	0.01691923070055389	-0.2896061951202283	-0.008278391969398155	0.004023637675627484	0.232064844117001	-11.15529672237364	-45.61661501731901	-4.530293048988106	-0.8083368740135718	-2.099230029655378	-652.4008546944665	67.79673451552129	0.2481996255865878	0.4904119291244767	-0.2366014459716265	-1.33910516987507	-0.2050099417288137	-0.5726804969704211	1.69278121796142	-1.467242510643562	-1.467242510643533	0.4316555262429032	-0.006405881163475477	-0.5284252679451036	-0.3478862287296229	-5.870072113716975e-08	-2.27637341593734e-08	5.305599298566358e-07	-4.56411967303881e-07	-4.932921714536163e-08	-8.690160960545602e-08	4.404683746861265e-07
0.53	-0.09983214840280792	0.03633875033387262	0.8190845985036436	0.8163297655760013	-0.2169313549942695	-0.1462549496993288	-0.6558541030853707	0.9234779239798155	0.9234779239798117	-0.06889995391784408	0.1745327137424574	0.3026732121917808	0.1516187984708343	-0.2416259456316851	-0.1636692376850332	-0.4112574394563251	1.50493810285411	-0.02375114765172365	0.1244744859615132	-0.6921933500611278	1.675935735974927	1.675935735974925	-0.4168170361972987	1.928198200522921e-05	0.5110960935213257	0.1759971730272493	-0.1840369372835407	0.005048826721381052	0.01730949288392132	-0.2940813414248638	-0.009277812534827201	0.004569288530523552	0.2370979516756311	-10.27927767721251	-46.17485204543011	-4.530896385959782	-0.6485144507809198	-2.055590384400933	-656.4207783962636	68.2940632614488	0.2701129950300954	0.4988049365801507	-0.1815755077512741	-1.462019285801351	-0.211266150198891	-0.5578628174869328	1.740235030178622	-1.602267938351388	-1.602267938354379	0.483832088330225	0.009257965055310379	-0.574098742731913	-0.385435277990288	-5.663223527646165e-08	1.678515554733877e-08	8.272110341420592e-07	-9.226627403093634e-08	-1.028258217144958e-07	-5.724165378989556e-08	5.939928395740855e-07
0.54	-0.1022345026525813	0.03472713421596139	0.814963879077384	0.8313039966268174	-0.2171792013192668	-0.145037363318439	-0.6626882549529892	0.9401550132923441	0.9401550132923514	-0.07304333296541818	0.1745327680834694	0.307754855847049	0.1533594348189745	-0.2388066618086317	-0.1586400510902465	-0.4127937988834872	1.489703230461718	-0.02581199843949427	0.1190925463458997	-0.6745589845450987	1.659261778804664	1.659261778804642	-0.4117860767622903	-2.527314613366198e-05	0.5051641531320432	0.1720949011027837	-0.1892154788419436	0.005638836833239978	0.01769975506721827	-0.2985564877295098	-0.01027723310025495	0.005114939385429897	0.2421310592342558	-9.409461324682548	-46.73551398967885	-4.527393348543865	-0.4945213636677789	-2.030108958025845	-660.4875595979579	68.8256793521772	0.2940872506018957	0.5069992700457904	-0.1255257393107786	-1.584959550866962	-0.1975803370923687	-0.5136210991623194	1.786427919153426	-1.731569521629672	-1.731569521629653	0.5196300283222713	-0.02678715107454096	-0.610792758645751	-0.3894260628332171	-5.709568120275442e-08	4.469137633069197e-08	1.073319387954416e-06	1.471532466411046e-07	-1.424445062943482e-07	-4.539164965401924e-08	7.474576284216402e-07
0.55	-0.1046074912218726	0.03316614924472978	0.8108306005028986	0.8461198012852847	-0.2174473589978587	-0.1438734476381353	-0.6693439142009164	0.956658685912104	0.9566586859121388	-0.07713538119181321	0.1745326715254668	0.3127751553308603	0.1550601963948965	-0.2357533894999931	-0.1535498915814427	-0.4137678299797897	1.473263455707921	-0.02780854051954307	0.1137181802861312	-0.6565081888765667	1.641260993739793	1.641260993739841	-0.4065758132692939	2.115303529631021e-06	0.4988304298210063	0.1680298591123956	-0.1943317703927403	0.006257566909999547	0.01803051420159708	-0.3028813223960164	-0.01156956116083346	0.005640449428284457	0.2470569633285196	-8.558436643998755	-47.39375009912303	-4.54299688630345	-0.3451647731641886	-1.862108675201313	-664.5237131809306	69.31124228837319	0.3166034683058411	0.5110492165138792	-0.0692366753191309	-1.702614679083881	-0.198932253106154	-0.5452648716812092	1.824106815308862	-1.86608424038085	-1.866084240370362	0.5290492191023597	0.01701636409363931	-0.6544970717590585	-0.4189542550316452	-5.433128306297038e-08	6.190655040607973e-08	1.183565633153596e-06	2.880230795394606e-07	-1.627511973922021e-07	-3.63394197357793e-08	8.221085120949001e-07
0.5600000000000001	-0.1069488158186164	0.03165627085362942	0.8066904026413443	0.8607653825479236	-0.2177351303191788	-0.1427624597208905	-0.6758171252072376	0.9729760004329233	0.9729760004329852	-0.08117386184141404	0.1745327517561717	0.3177301505906759	0.1567195253533367	-0.2324738672989109	-0.1484187350639972	-0.4141776562972683	1.455658551296211	-0.02973472698539172	0.1085069937344793	-0.638069336223802	1.621990159016319	1.621990159016437	-0.4010725614037354	1.008459746726794e-05	0.4921033083329125	0.1638083776064053	-0.1994480619435402	0.00687629698675526	0.0183612733359834	-0.3072061570625228	-0.01286188922141294	0.006165959471132552	0.2519828674227809	-7.752258517735351	-48.05229050286364	-4.552012294908993	-0.2044435438237032	-1.716179746148289	-668.5825418006663	69.82100065251811	0.3393372290906527	0.5151986717740898	-0.01268478354602259	-1.817985482449532	-0.1835092142523069	-0.4809851975389497	1.864039315999981	-1.985579453350368	-1.985579453350392	0.5782277028346808	-0.03067098221976161	-0.6894723940571675	-0.4207139659536365	-4.76934720438943e-08	6.629246843190937e-08	1.130777348016966e-06	3.106332871093986e-07	-1.598834963116585e-07	-3.064451887870291e-08	8.021827095590093e-07
0.5700000000000001	-0.1092562675904153	0.03019786498702609	0.8025489387240587	0.8752292100272476	-0.2180417592586551	-0.1417027680028347	-0.6821041122338236	0.9890943506162987	0.98909435061628	-0.0851559596976772	0.1745327671053954	0.3226159634907476	0.1583359427933308	-0.2289805542116583	-0.1432593980633145	-0.4140191486638725	1.436917690430586	-0.03157846972697463	0.1034546293508886	-0.6192774931794616	1.601474452084535	1.601474452084564	-0.3953019408813123	-4.519273366924378e-06	0.4849978764984323	0.1594505144956567	-0.20437747254438	0.007535077482307515	0.01864604163118282	-0.3116270064166887	-0.01407485548397016	0.006592583486631932	0.2567232362515288	-6.992242818981398	-48.69463877126405	-4.607297275799861	-0.04931224075972689	-1.530547666148474	-672.617097008781	70.24555152369904	0.3597262004568778	0.5167255909331293	0.04450982653894391	-1.930514763352508	-0.1828131542530686	-0.5139154183307022	1.894343185779134	-2.11537136147739	-2.115371361490634	0.5833832282407088	0.01361910983937583	-0.7303207618332083	-0.4468010900680692	-4.163321483415848e-08	6.99536138886409e-08	1.077643814727077e-06	3.256196220757912e-07	-1.56735456661201e-07	-2.514875993630795e-08	7.82047605474418e-07
